<mxfile host="app.diagrams.net" agent="Mozilla/5.0 (Windows NT 10.0; Win64; x64) AppleWebKit/537.36 (KHTML, like Gecko) Chrome/129.0.0.0 Safari/537.36" version="24.7.17" pages="3">
  <diagram name="Data-Scientist" id="iUOCzP8hj0axHowCD1z6">
    <mxGraphModel dx="2607" dy="1342" grid="0" gridSize="10" guides="1" tooltips="1" connect="1" arrows="1" fold="1" page="1" pageScale="1" pageWidth="827" pageHeight="1169" math="0" shadow="0">
      <root>
        <mxCell id="0" />
        <mxCell id="1" parent="0" />
        <mxCell id="spwm0yxfj4nfNmZl4Y9D-1" value="Data scientist" style="shape=umlActor;html=1;verticalLabelPosition=bottom;verticalAlign=top;align=center;" parent="1" vertex="1">
          <mxGeometry x="51" y="659" width="30" height="60" as="geometry" />
        </mxCell>
        <mxCell id="spwm0yxfj4nfNmZl4Y9D-2" value="ETL service" style="swimlane;whiteSpace=wrap;html=1;" parent="1" vertex="1">
          <mxGeometry x="211" y="24" width="1352" height="1126" as="geometry" />
        </mxCell>
        <mxCell id="spwm0yxfj4nfNmZl4Y9D-3" value="Unify data(to a specific format)" style="ellipse;whiteSpace=wrap;html=1;" parent="spwm0yxfj4nfNmZl4Y9D-2" vertex="1">
          <mxGeometry x="1204" y="78" width="140" height="70" as="geometry" />
        </mxCell>
        <mxCell id="spwm0yxfj4nfNmZl4Y9D-4" value="&lt;br&gt;Unify data;&lt;div&gt;Save metadata;&lt;/div&gt;" style="html=1;shape=mxgraph.sysml.useCaseExtPt;whiteSpace=wrap;align=center;" parent="spwm0yxfj4nfNmZl4Y9D-2" vertex="1">
          <mxGeometry x="957" y="117" width="160" height="80" as="geometry" />
        </mxCell>
        <mxCell id="spwm0yxfj4nfNmZl4Y9D-5" value="Extract data" style="resizable=0;html=1;verticalAlign=middle;align=center;labelBackgroundColor=none;fontStyle=1;" parent="spwm0yxfj4nfNmZl4Y9D-4" connectable="0" vertex="1">
          <mxGeometry x="80" y="17" as="geometry">
            <mxPoint y="2" as="offset" />
          </mxGeometry>
        </mxCell>
        <mxCell id="spwm0yxfj4nfNmZl4Y9D-6" value="Save metadata" style="ellipse;whiteSpace=wrap;html=1;" parent="spwm0yxfj4nfNmZl4Y9D-2" vertex="1">
          <mxGeometry x="1204" y="176" width="140" height="70" as="geometry" />
        </mxCell>
        <mxCell id="spwm0yxfj4nfNmZl4Y9D-7" value="&amp;lt;&amp;lt;extend&amp;gt;&amp;gt;" style="edgeStyle=none;html=1;startArrow=open;endArrow=none;startSize=12;verticalAlign=bottom;dashed=1;labelBackgroundColor=none;rounded=0;exitX=1.004;exitY=0.645;exitDx=0;exitDy=0;exitPerimeter=0;entryX=0;entryY=0.5;entryDx=0;entryDy=0;" parent="spwm0yxfj4nfNmZl4Y9D-2" source="spwm0yxfj4nfNmZl4Y9D-4" target="spwm0yxfj4nfNmZl4Y9D-6" edge="1">
          <mxGeometry width="160" relative="1" as="geometry">
            <mxPoint x="1126" y="241" as="sourcePoint" />
            <mxPoint x="1286" y="241" as="targetPoint" />
          </mxGeometry>
        </mxCell>
        <mxCell id="spwm0yxfj4nfNmZl4Y9D-8" value="&amp;lt;&amp;lt;extend&amp;gt;&amp;gt;" style="edgeStyle=none;html=1;startArrow=open;endArrow=none;startSize=12;verticalAlign=bottom;dashed=1;labelBackgroundColor=none;rounded=0;entryX=0;entryY=0.5;entryDx=0;entryDy=0;exitX=0.988;exitY=0.281;exitDx=0;exitDy=0;exitPerimeter=0;" parent="spwm0yxfj4nfNmZl4Y9D-2" source="spwm0yxfj4nfNmZl4Y9D-4" edge="1">
          <mxGeometry width="160" relative="1" as="geometry">
            <mxPoint x="1048" y="85" as="sourcePoint" />
            <mxPoint x="1203.999999999994" y="120" as="targetPoint" />
          </mxGeometry>
        </mxCell>
        <mxCell id="spwm0yxfj4nfNmZl4Y9D-9" value="&lt;div&gt;Apply cleansing rules;&lt;/div&gt;&lt;div&gt;Highlight errors;&lt;/div&gt;" style="html=1;shape=mxgraph.sysml.useCaseExtPt;whiteSpace=wrap;align=center;" parent="spwm0yxfj4nfNmZl4Y9D-2" vertex="1">
          <mxGeometry x="949" y="269" width="160" height="93" as="geometry" />
        </mxCell>
        <mxCell id="spwm0yxfj4nfNmZl4Y9D-10" value="Cleanse data" style="resizable=0;html=1;verticalAlign=middle;align=center;labelBackgroundColor=none;fontStyle=1;" parent="spwm0yxfj4nfNmZl4Y9D-9" connectable="0" vertex="1">
          <mxGeometry x="80" y="19.762500000000003" as="geometry">
            <mxPoint y="2" as="offset" />
          </mxGeometry>
        </mxCell>
        <mxCell id="spwm0yxfj4nfNmZl4Y9D-11" value="Apply cleansing rules" style="ellipse;whiteSpace=wrap;html=1;" parent="spwm0yxfj4nfNmZl4Y9D-2" vertex="1">
          <mxGeometry x="1196" y="256" width="140" height="70" as="geometry" />
        </mxCell>
        <mxCell id="spwm0yxfj4nfNmZl4Y9D-12" value="Highlight errors" style="ellipse;whiteSpace=wrap;html=1;" parent="spwm0yxfj4nfNmZl4Y9D-2" vertex="1">
          <mxGeometry x="1196" y="347" width="140" height="70" as="geometry" />
        </mxCell>
        <mxCell id="spwm0yxfj4nfNmZl4Y9D-13" value="&amp;lt;&amp;lt;extend&amp;gt;&amp;gt;" style="edgeStyle=none;html=1;startArrow=open;endArrow=none;startSize=12;verticalAlign=bottom;dashed=1;labelBackgroundColor=none;rounded=0;exitX=1;exitY=0.5;exitDx=0;exitDy=0;exitPerimeter=0;entryX=0;entryY=0.5;entryDx=0;entryDy=0;" parent="spwm0yxfj4nfNmZl4Y9D-2" source="spwm0yxfj4nfNmZl4Y9D-9" target="spwm0yxfj4nfNmZl4Y9D-11" edge="1">
          <mxGeometry width="160" relative="1" as="geometry">
            <mxPoint x="1110" y="284" as="sourcePoint" />
            <mxPoint x="1196" y="326" as="targetPoint" />
          </mxGeometry>
        </mxCell>
        <mxCell id="spwm0yxfj4nfNmZl4Y9D-14" value="&amp;lt;&amp;lt;extend&amp;gt;&amp;gt;" style="edgeStyle=none;html=1;startArrow=open;endArrow=none;startSize=12;verticalAlign=bottom;dashed=1;labelBackgroundColor=none;rounded=0;entryX=0;entryY=0.5;entryDx=0;entryDy=0;exitX=0.982;exitY=0.635;exitDx=0;exitDy=0;exitPerimeter=0;" parent="spwm0yxfj4nfNmZl4Y9D-2" source="spwm0yxfj4nfNmZl4Y9D-9" target="spwm0yxfj4nfNmZl4Y9D-12" edge="1">
          <mxGeometry width="160" relative="1" as="geometry">
            <mxPoint x="1105" y="321" as="sourcePoint" />
            <mxPoint x="1165" y="389" as="targetPoint" />
          </mxGeometry>
        </mxCell>
        <mxCell id="spwm0yxfj4nfNmZl4Y9D-15" value="Protect PII" style="html=1;shape=mxgraph.sysml.useCaseExtPt;whiteSpace=wrap;align=center;" parent="spwm0yxfj4nfNmZl4Y9D-2" vertex="1">
          <mxGeometry x="949" y="426.5" width="160" height="93" as="geometry" />
        </mxCell>
        <mxCell id="spwm0yxfj4nfNmZl4Y9D-16" value="Anonymize data" style="resizable=0;html=1;verticalAlign=middle;align=center;labelBackgroundColor=none;fontStyle=1;" parent="spwm0yxfj4nfNmZl4Y9D-15" connectable="0" vertex="1">
          <mxGeometry x="80" y="19.762500000000003" as="geometry">
            <mxPoint x="-2" as="offset" />
          </mxGeometry>
        </mxCell>
        <mxCell id="spwm0yxfj4nfNmZl4Y9D-17" value="Protect PII" style="ellipse;whiteSpace=wrap;html=1;" parent="spwm0yxfj4nfNmZl4Y9D-2" vertex="1">
          <mxGeometry x="1204" y="438" width="140" height="70" as="geometry" />
        </mxCell>
        <mxCell id="spwm0yxfj4nfNmZl4Y9D-18" value="&amp;lt;&amp;lt;extend&amp;gt;&amp;gt;" style="edgeStyle=none;html=1;startArrow=open;endArrow=none;startSize=12;verticalAlign=bottom;dashed=1;labelBackgroundColor=none;rounded=0;exitX=1;exitY=0.5;exitDx=0;exitDy=0;exitPerimeter=0;entryX=0;entryY=0.5;entryDx=0;entryDy=0;" parent="spwm0yxfj4nfNmZl4Y9D-2" source="spwm0yxfj4nfNmZl4Y9D-15" target="spwm0yxfj4nfNmZl4Y9D-17" edge="1">
          <mxGeometry width="160" relative="1" as="geometry">
            <mxPoint x="1118" y="466" as="sourcePoint" />
            <mxPoint x="1204" y="508" as="targetPoint" />
          </mxGeometry>
        </mxCell>
        <mxCell id="spwm0yxfj4nfNmZl4Y9D-19" value="&lt;div&gt;Apply transformation logic;&lt;/div&gt;&lt;div&gt;Configure/change business logic;&lt;/div&gt;" style="html=1;shape=mxgraph.sysml.useCaseExtPt;whiteSpace=wrap;align=center;" parent="spwm0yxfj4nfNmZl4Y9D-2" vertex="1">
          <mxGeometry x="940" y="542" width="182" height="119" as="geometry" />
        </mxCell>
        <mxCell id="spwm0yxfj4nfNmZl4Y9D-20" value="Transform data" style="resizable=0;html=1;verticalAlign=middle;align=center;labelBackgroundColor=none;fontStyle=1;" parent="spwm0yxfj4nfNmZl4Y9D-19" connectable="0" vertex="1">
          <mxGeometry x="91" y="25.2875" as="geometry">
            <mxPoint y="2" as="offset" />
          </mxGeometry>
        </mxCell>
        <mxCell id="spwm0yxfj4nfNmZl4Y9D-21" value="&lt;div&gt;Apply transformation logic&lt;/div&gt;" style="ellipse;whiteSpace=wrap;html=1;" parent="spwm0yxfj4nfNmZl4Y9D-2" vertex="1">
          <mxGeometry x="1196" y="542" width="140" height="70" as="geometry" />
        </mxCell>
        <mxCell id="spwm0yxfj4nfNmZl4Y9D-22" value="Configure/change business logic" style="ellipse;whiteSpace=wrap;html=1;" parent="spwm0yxfj4nfNmZl4Y9D-2" vertex="1">
          <mxGeometry x="1196" y="633" width="140" height="70" as="geometry" />
        </mxCell>
        <mxCell id="spwm0yxfj4nfNmZl4Y9D-23" value="&amp;lt;&amp;lt;extend&amp;gt;&amp;gt;" style="edgeStyle=none;html=1;startArrow=open;endArrow=none;startSize=12;verticalAlign=bottom;dashed=1;labelBackgroundColor=none;rounded=0;exitX=1;exitY=0.5;exitDx=0;exitDy=0;exitPerimeter=0;entryX=0;entryY=0.5;entryDx=0;entryDy=0;" parent="spwm0yxfj4nfNmZl4Y9D-2" source="spwm0yxfj4nfNmZl4Y9D-19" target="spwm0yxfj4nfNmZl4Y9D-21" edge="1">
          <mxGeometry x="-0.0045" width="160" relative="1" as="geometry">
            <mxPoint x="1110" y="570" as="sourcePoint" />
            <mxPoint x="1196" y="612" as="targetPoint" />
            <mxPoint as="offset" />
          </mxGeometry>
        </mxCell>
        <mxCell id="spwm0yxfj4nfNmZl4Y9D-24" value="&amp;lt;&amp;lt;extend&amp;gt;&amp;gt;" style="edgeStyle=none;html=1;startArrow=open;endArrow=none;startSize=12;verticalAlign=bottom;dashed=1;labelBackgroundColor=none;rounded=0;entryX=0;entryY=0.5;entryDx=0;entryDy=0;exitX=0.982;exitY=0.635;exitDx=0;exitDy=0;exitPerimeter=0;" parent="spwm0yxfj4nfNmZl4Y9D-2" source="spwm0yxfj4nfNmZl4Y9D-19" target="spwm0yxfj4nfNmZl4Y9D-22" edge="1">
          <mxGeometry width="160" relative="1" as="geometry">
            <mxPoint x="1105" y="607" as="sourcePoint" />
            <mxPoint x="1165" y="675" as="targetPoint" />
          </mxGeometry>
        </mxCell>
        <mxCell id="spwm0yxfj4nfNmZl4Y9D-25" value="&lt;div&gt;&lt;span style=&quot;background-color: initial; white-space-collapse: preserve;&quot;&gt;Comparing data &lt;/span&gt;&lt;span style=&quot;background-color: initial; white-space-collapse: preserve;&quot;&gt;from multiple &lt;/span&gt;&lt;span style=&quot;background-color: initial; white-space-collapse: preserve;&quot;&gt;sources&lt;/span&gt;;&lt;/div&gt;&lt;div&gt;&lt;span style=&quot;background-color: initial; white-space-collapse: preserve;&quot;&gt;Ensuring data &lt;/span&gt;&lt;span style=&quot;background-color: initial; white-space-collapse: preserve;&quot;&gt;integrity&lt;/span&gt;;&lt;/div&gt;" style="html=1;shape=mxgraph.sysml.useCaseExtPt;whiteSpace=wrap;align=center;" parent="spwm0yxfj4nfNmZl4Y9D-2" vertex="1">
          <mxGeometry x="941" y="683" width="177" height="152" as="geometry" />
        </mxCell>
        <mxCell id="spwm0yxfj4nfNmZl4Y9D-26" value="Merged data" style="resizable=0;html=1;verticalAlign=middle;align=center;labelBackgroundColor=none;fontStyle=1;" parent="spwm0yxfj4nfNmZl4Y9D-25" connectable="0" vertex="1">
          <mxGeometry x="88.5" y="32.300000000000004" as="geometry">
            <mxPoint y="2" as="offset" />
          </mxGeometry>
        </mxCell>
        <mxCell id="spwm0yxfj4nfNmZl4Y9D-27" value="&amp;lt;&amp;lt;extend&amp;gt;&amp;gt;" style="edgeStyle=none;html=1;startArrow=open;endArrow=none;startSize=12;verticalAlign=bottom;dashed=1;labelBackgroundColor=none;rounded=0;exitX=0.984;exitY=0.376;exitDx=0;exitDy=0;exitPerimeter=0;entryX=0;entryY=0.5;entryDx=0;entryDy=0;" parent="spwm0yxfj4nfNmZl4Y9D-2" source="spwm0yxfj4nfNmZl4Y9D-25" target="spwm0yxfj4nfNmZl4Y9D-29" edge="1">
          <mxGeometry x="-0.0045" width="160" relative="1" as="geometry">
            <mxPoint x="1118" y="749" as="sourcePoint" />
            <mxPoint x="1209" y="737" as="targetPoint" />
            <mxPoint as="offset" />
          </mxGeometry>
        </mxCell>
        <mxCell id="spwm0yxfj4nfNmZl4Y9D-28" value="&amp;lt;&amp;lt;extend&amp;gt;&amp;gt;" style="edgeStyle=none;html=1;startArrow=open;endArrow=none;startSize=12;verticalAlign=bottom;dashed=1;labelBackgroundColor=none;rounded=0;exitX=0.981;exitY=0.61;exitDx=0;exitDy=0;exitPerimeter=0;" parent="spwm0yxfj4nfNmZl4Y9D-2" source="spwm0yxfj4nfNmZl4Y9D-25" target="spwm0yxfj4nfNmZl4Y9D-30" edge="1">
          <mxGeometry width="160" relative="1" as="geometry">
            <mxPoint x="1122" y="767" as="sourcePoint" />
            <mxPoint x="1196" y="789" as="targetPoint" />
          </mxGeometry>
        </mxCell>
        <mxCell id="spwm0yxfj4nfNmZl4Y9D-29" value="&lt;span style=&quot;white-space-collapse: preserve; background-color: initial;&quot;&gt;Comparing data &lt;/span&gt;&lt;span style=&quot;white-space-collapse: preserve; background-color: initial;&quot;&gt;from multiple &lt;/span&gt;&lt;span style=&quot;white-space-collapse: preserve; background-color: initial;&quot;&gt;sources&lt;/span&gt;" style="ellipse;whiteSpace=wrap;html=1;" parent="spwm0yxfj4nfNmZl4Y9D-2" vertex="1">
          <mxGeometry x="1196" y="716" width="140" height="70" as="geometry" />
        </mxCell>
        <mxCell id="spwm0yxfj4nfNmZl4Y9D-30" value="&lt;span style=&quot;white-space-collapse: preserve; background-color: initial;&quot;&gt;Ensuring data &lt;/span&gt;&lt;span style=&quot;white-space-collapse: preserve; background-color: initial;&quot;&gt;integrity&lt;/span&gt;" style="ellipse;whiteSpace=wrap;html=1;" parent="spwm0yxfj4nfNmZl4Y9D-2" vertex="1">
          <mxGeometry x="1196" y="789" width="140" height="70" as="geometry" />
        </mxCell>
        <mxCell id="spwm0yxfj4nfNmZl4Y9D-31" value="&lt;span style=&quot;white-space-collapse: preserve;&quot;&gt;Support for various &lt;/span&gt;&lt;span style=&quot;white-space-collapse: preserve;&quot;&gt;data stores &lt;/span&gt;" style="html=1;shape=mxgraph.sysml.useCaseExtPt;whiteSpace=wrap;align=center;" parent="spwm0yxfj4nfNmZl4Y9D-2" vertex="1">
          <mxGeometry x="949" y="891" width="160" height="93" as="geometry" />
        </mxCell>
        <mxCell id="spwm0yxfj4nfNmZl4Y9D-32" value="Export dataset" style="resizable=0;html=1;verticalAlign=middle;align=center;labelBackgroundColor=none;fontStyle=1;" parent="spwm0yxfj4nfNmZl4Y9D-31" connectable="0" vertex="1">
          <mxGeometry x="80" y="19.762500000000003" as="geometry">
            <mxPoint x="-2" as="offset" />
          </mxGeometry>
        </mxCell>
        <mxCell id="spwm0yxfj4nfNmZl4Y9D-33" value="&amp;lt;&amp;lt;extend&amp;gt;&amp;gt;" style="edgeStyle=none;html=1;startArrow=open;endArrow=none;startSize=12;verticalAlign=bottom;dashed=1;labelBackgroundColor=none;rounded=0;exitX=0.981;exitY=0.466;exitDx=0;exitDy=0;exitPerimeter=0;entryX=0;entryY=0.5;entryDx=0;entryDy=0;" parent="spwm0yxfj4nfNmZl4Y9D-2" source="spwm0yxfj4nfNmZl4Y9D-31" target="spwm0yxfj4nfNmZl4Y9D-34" edge="1">
          <mxGeometry width="160" relative="1" as="geometry">
            <mxPoint x="1128" y="917" as="sourcePoint" />
            <mxPoint x="1196" y="937" as="targetPoint" />
          </mxGeometry>
        </mxCell>
        <mxCell id="spwm0yxfj4nfNmZl4Y9D-34" value="&lt;span style=&quot;white-space-collapse: preserve;&quot;&gt;Support for various &lt;/span&gt;&lt;span style=&quot;white-space-collapse: preserve;&quot;&gt;data stores &lt;/span&gt;" style="ellipse;whiteSpace=wrap;html=1;" parent="spwm0yxfj4nfNmZl4Y9D-2" vertex="1">
          <mxGeometry x="1196" y="902.5" width="140" height="70" as="geometry" />
        </mxCell>
        <mxCell id="spwm0yxfj4nfNmZl4Y9D-35" value="&amp;lt;&amp;lt;extend&amp;gt;&amp;gt;" style="edgeStyle=none;html=1;startArrow=open;endArrow=none;startSize=12;verticalAlign=bottom;dashed=1;labelBackgroundColor=none;rounded=0;entryX=0;entryY=0.5;entryDx=0;entryDy=0;entryPerimeter=0;exitX=1;exitY=0;exitDx=0;exitDy=0;" parent="spwm0yxfj4nfNmZl4Y9D-2" target="spwm0yxfj4nfNmZl4Y9D-4" edge="1">
          <mxGeometry width="160" relative="1" as="geometry">
            <mxPoint x="661.4264068711832" y="528.2867965644084" as="sourcePoint" />
            <mxPoint x="927" y="306" as="targetPoint" />
          </mxGeometry>
        </mxCell>
        <mxCell id="spwm0yxfj4nfNmZl4Y9D-36" value="&amp;lt;&amp;lt;extend&amp;gt;&amp;gt;" style="edgeStyle=none;html=1;startArrow=open;endArrow=none;startSize=12;verticalAlign=bottom;dashed=1;labelBackgroundColor=none;rounded=0;entryX=0;entryY=0.5;entryDx=0;entryDy=0;entryPerimeter=0;exitX=0.964;exitY=0.724;exitDx=0;exitDy=0;exitPerimeter=0;" parent="spwm0yxfj4nfNmZl4Y9D-2" target="spwm0yxfj4nfNmZl4Y9D-19" edge="1">
          <mxGeometry width="160" relative="1" as="geometry">
            <mxPoint x="674.6799999999998" y="562.94" as="sourcePoint" />
            <mxPoint x="975" y="342" as="targetPoint" />
          </mxGeometry>
        </mxCell>
        <mxCell id="spwm0yxfj4nfNmZl4Y9D-37" value="&amp;lt;&amp;lt;extend&amp;gt;&amp;gt;" style="edgeStyle=none;html=1;startArrow=open;endArrow=none;startSize=12;verticalAlign=bottom;dashed=1;labelBackgroundColor=none;rounded=0;entryX=0;entryY=0.5;entryDx=0;entryDy=0;entryPerimeter=0;" parent="spwm0yxfj4nfNmZl4Y9D-2" target="spwm0yxfj4nfNmZl4Y9D-31" edge="1">
          <mxGeometry width="160" relative="1" as="geometry">
            <mxPoint x="642.5490042085567" y="577.092772608006" as="sourcePoint" />
            <mxPoint x="949" y="774" as="targetPoint" />
          </mxGeometry>
        </mxCell>
        <mxCell id="spwm0yxfj4nfNmZl4Y9D-38" value="&amp;lt;&amp;lt;extend&amp;gt;&amp;gt;" style="edgeStyle=none;html=1;startArrow=open;endArrow=none;startSize=12;verticalAlign=bottom;dashed=1;labelBackgroundColor=none;rounded=0;entryX=0;entryY=0.5;entryDx=0;entryDy=0;entryPerimeter=0;exitX=1;exitY=0;exitDx=0;exitDy=0;" parent="spwm0yxfj4nfNmZl4Y9D-2" target="spwm0yxfj4nfNmZl4Y9D-9" edge="1">
          <mxGeometry width="160" relative="1" as="geometry">
            <mxPoint x="661.4264068711832" y="528.2867965644084" as="sourcePoint" />
            <mxPoint x="996" y="222" as="targetPoint" />
          </mxGeometry>
        </mxCell>
        <mxCell id="spwm0yxfj4nfNmZl4Y9D-39" value="&amp;lt;&amp;lt;extend&amp;gt;&amp;gt;" style="edgeStyle=none;html=1;startArrow=open;endArrow=none;startSize=12;verticalAlign=bottom;dashed=1;labelBackgroundColor=none;rounded=0;entryX=0;entryY=0.5;entryDx=0;entryDy=0;entryPerimeter=0;exitX=1;exitY=0.5;exitDx=0;exitDy=0;" parent="spwm0yxfj4nfNmZl4Y9D-2" target="spwm0yxfj4nfNmZl4Y9D-15" edge="1">
          <mxGeometry width="160" relative="1" as="geometry">
            <mxPoint x="678.9999999999936" y="549.5" as="sourcePoint" />
            <mxPoint x="988" y="381" as="targetPoint" />
          </mxGeometry>
        </mxCell>
        <mxCell id="spwm0yxfj4nfNmZl4Y9D-40" value="&amp;lt;&amp;lt;extend&amp;gt;&amp;gt;" style="edgeStyle=none;html=1;startArrow=open;endArrow=none;startSize=12;verticalAlign=bottom;dashed=1;labelBackgroundColor=none;rounded=0;exitX=1;exitY=1;exitDx=0;exitDy=0;entryX=0;entryY=0.5;entryDx=0;entryDy=0;entryPerimeter=0;" parent="spwm0yxfj4nfNmZl4Y9D-2" target="spwm0yxfj4nfNmZl4Y9D-25" edge="1">
          <mxGeometry width="160" relative="1" as="geometry">
            <mxPoint x="661.4264068711832" y="570.7132034355918" as="sourcePoint" />
            <mxPoint x="962" y="813" as="targetPoint" />
          </mxGeometry>
        </mxCell>
        <mxCell id="spwm0yxfj4nfNmZl4Y9D-42" value="LogIn" style="ellipse;whiteSpace=wrap;html=1;" parent="spwm0yxfj4nfNmZl4Y9D-2" vertex="1">
          <mxGeometry x="75" y="511" width="140" height="70" as="geometry" />
        </mxCell>
        <mxCell id="spwm0yxfj4nfNmZl4Y9D-43" value="Manage job&amp;nbsp;" style="ellipse;whiteSpace=wrap;html=1;" parent="spwm0yxfj4nfNmZl4Y9D-2" vertex="1">
          <mxGeometry x="540" y="517" width="140" height="70" as="geometry" />
        </mxCell>
        <mxCell id="spwm0yxfj4nfNmZl4Y9D-45" value="&amp;lt;&amp;lt;include&amp;gt;&amp;gt;" style="edgeStyle=none;html=1;endArrow=none;verticalAlign=bottom;dashed=1;labelBackgroundColor=none;rounded=0;exitX=0;exitY=0.5;exitDx=0;exitDy=0;entryX=1;entryY=0.5;entryDx=0;entryDy=0;endFill=0;startArrow=open;startFill=0;" parent="spwm0yxfj4nfNmZl4Y9D-2" source="spwm0yxfj4nfNmZl4Y9D-43" target="spwm0yxfj4nfNmZl4Y9D-42" edge="1">
          <mxGeometry x="0.106" y="-13" width="160" relative="1" as="geometry">
            <mxPoint x="455" y="731" as="sourcePoint" />
            <mxPoint x="615" y="731" as="targetPoint" />
            <mxPoint as="offset" />
          </mxGeometry>
        </mxCell>
        <mxCell id="V4emf1rF0J23gEmisZZX-1" value="Watch logs" style="ellipse;whiteSpace=wrap;html=1;" parent="spwm0yxfj4nfNmZl4Y9D-2" vertex="1">
          <mxGeometry x="555" y="850" width="140" height="70" as="geometry" />
        </mxCell>
        <mxCell id="xFBVYsmKyYMo29ckNsd6-1" value="&amp;lt;&amp;lt;include&amp;gt;&amp;gt;" style="edgeStyle=none;html=1;endArrow=none;verticalAlign=bottom;dashed=1;labelBackgroundColor=none;rounded=0;exitX=0;exitY=0.5;exitDx=0;exitDy=0;startArrow=open;startFill=0;endFill=0;" parent="spwm0yxfj4nfNmZl4Y9D-2" edge="1" target="spwm0yxfj4nfNmZl4Y9D-42">
          <mxGeometry width="160" relative="1" as="geometry">
            <mxPoint x="555" y="877" as="sourcePoint" />
            <mxPoint x="209" y="677" as="targetPoint" />
          </mxGeometry>
        </mxCell>
        <mxCell id="xFBVYsmKyYMo29ckNsd6-2" value="" style="edgeStyle=none;html=1;endArrow=none;verticalAlign=bottom;dashed=1;labelBackgroundColor=none;rounded=0;endFill=0;startArrow=open;startFill=0;" parent="spwm0yxfj4nfNmZl4Y9D-2" source="AhHF77WMotZCNJgJwG4E-1" target="spwm0yxfj4nfNmZl4Y9D-42" edge="1">
          <mxGeometry width="160" relative="1" as="geometry">
            <mxPoint x="448" y="992" as="sourcePoint" />
            <mxPoint x="234" y="699" as="targetPoint" />
          </mxGeometry>
        </mxCell>
        <mxCell id="AhHF77WMotZCNJgJwG4E-2" value="&amp;lt;&amp;lt;include&amp;gt;&amp;gt;" style="edgeLabel;html=1;align=center;verticalAlign=middle;resizable=0;points=[];" vertex="1" connectable="0" parent="xFBVYsmKyYMo29ckNsd6-2">
          <mxGeometry x="-0.0235" relative="1" as="geometry">
            <mxPoint as="offset" />
          </mxGeometry>
        </mxCell>
        <mxCell id="AhHF77WMotZCNJgJwG4E-1" value="Get Previous Dataset" style="ellipse;whiteSpace=wrap;html=1;" vertex="1" parent="spwm0yxfj4nfNmZl4Y9D-2">
          <mxGeometry x="447" y="989" width="140" height="70" as="geometry" />
        </mxCell>
        <mxCell id="spwm0yxfj4nfNmZl4Y9D-49" value="" style="edgeStyle=none;html=1;endArrow=none;verticalAlign=bottom;rounded=0;entryX=0;entryY=0.5;entryDx=0;entryDy=0;exitX=0.5;exitY=0.5;exitDx=0;exitDy=0;exitPerimeter=0;" parent="1" source="spwm0yxfj4nfNmZl4Y9D-1" target="spwm0yxfj4nfNmZl4Y9D-42" edge="1">
          <mxGeometry width="160" relative="1" as="geometry">
            <mxPoint x="114" y="612" as="sourcePoint" />
            <mxPoint x="290" y="780" as="targetPoint" />
          </mxGeometry>
        </mxCell>
      </root>
    </mxGraphModel>
  </diagram>
  <diagram id="ME8S7JUrf3SncNuG8Nuj" name="DevOps">
    <mxGraphModel grid="1" page="1" gridSize="10" guides="1" tooltips="1" connect="1" arrows="1" fold="1" pageScale="1" pageWidth="827" pageHeight="1169" math="0" shadow="0">
      <root>
        <mxCell id="0" />
        <mxCell id="1" parent="0" />
        <mxCell id="1KI7qoRUSAaZu9YH3PpQ-52" style="rounded=0;orthogonalLoop=1;jettySize=auto;html=1;endArrow=none;endFill=0;" parent="1" source="1KI7qoRUSAaZu9YH3PpQ-1" target="1KI7qoRUSAaZu9YH3PpQ-41" edge="1">
          <mxGeometry relative="1" as="geometry" />
        </mxCell>
        <mxCell id="1KI7qoRUSAaZu9YH3PpQ-1" value="DevOps" style="shape=umlActor;html=1;verticalLabelPosition=bottom;verticalAlign=top;align=center;" parent="1" vertex="1">
          <mxGeometry x="70" y="388" width="30" height="60" as="geometry" />
        </mxCell>
        <mxCell id="1KI7qoRUSAaZu9YH3PpQ-2" value="ETL service" style="swimlane;whiteSpace=wrap;html=1;" parent="1" vertex="1">
          <mxGeometry x="180" y="10" width="1352" height="900" as="geometry" />
        </mxCell>
        <mxCell id="1KI7qoRUSAaZu9YH3PpQ-41" value="LogIn" style="ellipse;whiteSpace=wrap;html=1;" parent="1KI7qoRUSAaZu9YH3PpQ-2" vertex="1">
          <mxGeometry x="78" y="370" width="140" height="70" as="geometry" />
        </mxCell>
        <mxCell id="1KI7qoRUSAaZu9YH3PpQ-43" value="&amp;lt;&amp;lt;include&amp;gt;&amp;gt;" style="edgeStyle=none;html=1;endArrow=open;verticalAlign=bottom;dashed=1;labelBackgroundColor=none;rounded=0;exitX=1;exitY=0;exitDx=0;exitDy=0;entryX=0;entryY=0.5;entryDx=0;entryDy=0;" parent="1KI7qoRUSAaZu9YH3PpQ-2" target="wkU8SOKUY6_yaawyySyG-1" edge="1" source="1KI7qoRUSAaZu9YH3PpQ-41">
          <mxGeometry x="0.106" y="-13" width="160" relative="1" as="geometry">
            <mxPoint x="545.9999999999995" y="280" as="sourcePoint" />
            <mxPoint x="396" y="149" as="targetPoint" />
            <mxPoint as="offset" />
          </mxGeometry>
        </mxCell>
        <mxCell id="1KI7qoRUSAaZu9YH3PpQ-44" value="Terminate service" style="ellipse;whiteSpace=wrap;html=1;" parent="1KI7qoRUSAaZu9YH3PpQ-2" vertex="1">
          <mxGeometry x="546" y="440" width="140" height="70" as="geometry" />
        </mxCell>
        <mxCell id="1KI7qoRUSAaZu9YH3PpQ-45" value="&amp;lt;&amp;lt;include&amp;gt;&amp;gt;" style="edgeStyle=none;html=1;endArrow=open;verticalAlign=bottom;dashed=1;labelBackgroundColor=none;rounded=0;entryX=0;entryY=0.5;entryDx=0;entryDy=0;exitX=1;exitY=0.5;exitDx=0;exitDy=0;" parent="1KI7qoRUSAaZu9YH3PpQ-2" source="1KI7qoRUSAaZu9YH3PpQ-41" target="1KI7qoRUSAaZu9YH3PpQ-44" edge="1">
          <mxGeometry x="-0.0595" y="-1" width="160" relative="1" as="geometry">
            <mxPoint x="331" y="384" as="sourcePoint" />
            <mxPoint x="498" y="468" as="targetPoint" />
            <mxPoint as="offset" />
          </mxGeometry>
        </mxCell>
        <mxCell id="1KI7qoRUSAaZu9YH3PpQ-46" style="rounded=0;orthogonalLoop=1;jettySize=auto;html=1;dashed=1;endArrow=open;endFill=0;entryX=0;entryY=0.5;entryDx=0;entryDy=0;exitX=1;exitY=1;exitDx=0;exitDy=0;" parent="1KI7qoRUSAaZu9YH3PpQ-2" source="1KI7qoRUSAaZu9YH3PpQ-41" target="1KI7qoRUSAaZu9YH3PpQ-48" edge="1">
          <mxGeometry relative="1" as="geometry">
            <mxPoint x="208" y="216" as="sourcePoint" />
          </mxGeometry>
        </mxCell>
        <mxCell id="1KI7qoRUSAaZu9YH3PpQ-47" value="&lt;span style=&quot;background-color: rgb(251, 251, 251);&quot;&gt;&amp;lt;&amp;lt;include&amp;gt;&amp;gt;&lt;/span&gt;" style="edgeLabel;html=1;align=center;verticalAlign=middle;resizable=0;points=[];" parent="1KI7qoRUSAaZu9YH3PpQ-46" connectable="0" vertex="1">
          <mxGeometry x="0.0997" relative="1" as="geometry">
            <mxPoint x="20" y="4" as="offset" />
          </mxGeometry>
        </mxCell>
        <mxCell id="1KI7qoRUSAaZu9YH3PpQ-48" value="Restart service" style="ellipse;whiteSpace=wrap;html=1;" parent="1KI7qoRUSAaZu9YH3PpQ-2" vertex="1">
          <mxGeometry x="560" y="558" width="140" height="70" as="geometry" />
        </mxCell>
        <mxCell id="1KI7qoRUSAaZu9YH3PpQ-49" style="rounded=0;orthogonalLoop=1;jettySize=auto;html=1;endArrow=open;endFill=0;dashed=1;entryX=0;entryY=0.5;entryDx=0;entryDy=0;exitX=1;exitY=1;exitDx=0;exitDy=0;" parent="1KI7qoRUSAaZu9YH3PpQ-2" source="1KI7qoRUSAaZu9YH3PpQ-41" target="1KI7qoRUSAaZu9YH3PpQ-51" edge="1">
          <mxGeometry relative="1" as="geometry">
            <mxPoint x="210" y="634" as="sourcePoint" />
          </mxGeometry>
        </mxCell>
        <mxCell id="1KI7qoRUSAaZu9YH3PpQ-50" value="&lt;span style=&quot;background-color: rgb(251, 251, 251);&quot;&gt;&amp;lt;&amp;lt;include&amp;gt;&amp;gt;&lt;/span&gt;" style="edgeLabel;html=1;align=center;verticalAlign=middle;resizable=0;points=[];" parent="1KI7qoRUSAaZu9YH3PpQ-49" connectable="0" vertex="1">
          <mxGeometry x="0.0274" relative="1" as="geometry">
            <mxPoint as="offset" />
          </mxGeometry>
        </mxCell>
        <mxCell id="1KI7qoRUSAaZu9YH3PpQ-51" value="Watch logs" style="ellipse;whiteSpace=wrap;html=1;" parent="1KI7qoRUSAaZu9YH3PpQ-2" vertex="1">
          <mxGeometry x="540" y="747" width="140" height="70" as="geometry" />
        </mxCell>
        <mxCell id="yGUYjB_gWH12SQfM5W9i-1" style="rounded=0;orthogonalLoop=1;jettySize=auto;html=1;dashed=1;endArrow=none;endFill=0;startArrow=open;startFill=0;" edge="1" parent="1KI7qoRUSAaZu9YH3PpQ-2" source="wkU8SOKUY6_yaawyySyG-1" target="wkU8SOKUY6_yaawyySyG-3">
          <mxGeometry relative="1" as="geometry" />
        </mxCell>
        <mxCell id="yGUYjB_gWH12SQfM5W9i-2" value="&amp;lt;&amp;lt;extend&amp;gt;&amp;gt;" style="edgeLabel;html=1;align=center;verticalAlign=middle;resizable=0;points=[];" vertex="1" connectable="0" parent="yGUYjB_gWH12SQfM5W9i-1">
          <mxGeometry x="-0.1038" y="-3" relative="1" as="geometry">
            <mxPoint as="offset" />
          </mxGeometry>
        </mxCell>
        <mxCell id="yGUYjB_gWH12SQfM5W9i-3" style="rounded=0;orthogonalLoop=1;jettySize=auto;html=1;endArrow=none;endFill=0;dashed=1;startArrow=open;startFill=0;" edge="1" parent="1KI7qoRUSAaZu9YH3PpQ-2" source="wkU8SOKUY6_yaawyySyG-1" target="wkU8SOKUY6_yaawyySyG-4">
          <mxGeometry relative="1" as="geometry" />
        </mxCell>
        <mxCell id="yGUYjB_gWH12SQfM5W9i-4" value="&amp;lt;&amp;lt;extend&amp;gt;&amp;gt;" style="edgeLabel;html=1;align=center;verticalAlign=middle;resizable=0;points=[];" vertex="1" connectable="0" parent="yGUYjB_gWH12SQfM5W9i-3">
          <mxGeometry x="-0.0287" y="1" relative="1" as="geometry">
            <mxPoint as="offset" />
          </mxGeometry>
        </mxCell>
        <mxCell id="wkU8SOKUY6_yaawyySyG-1" value="Configure service&amp;nbsp;" style="ellipse;whiteSpace=wrap;html=1;" parent="1KI7qoRUSAaZu9YH3PpQ-2" vertex="1">
          <mxGeometry x="546" y="240" width="140" height="70" as="geometry" />
        </mxCell>
        <mxCell id="wkU8SOKUY6_yaawyySyG-3" value="Configure Input sources&amp;nbsp;" style="ellipse;whiteSpace=wrap;html=1;" parent="1KI7qoRUSAaZu9YH3PpQ-2" vertex="1">
          <mxGeometry x="780" y="170" width="140" height="70" as="geometry" />
        </mxCell>
        <mxCell id="wkU8SOKUY6_yaawyySyG-4" value="Configure ETL process description&amp;nbsp;" style="ellipse;whiteSpace=wrap;html=1;" parent="1KI7qoRUSAaZu9YH3PpQ-2" vertex="1">
          <mxGeometry x="800" y="330" width="140" height="70" as="geometry" />
        </mxCell>
        <mxCell id="wkU8SOKUY6_yaawyySyG-6" value="Run tests" style="ellipse;whiteSpace=wrap;html=1;" vertex="1" parent="1KI7qoRUSAaZu9YH3PpQ-2">
          <mxGeometry x="1050" y="340" width="140" height="70" as="geometry" />
        </mxCell>
        <mxCell id="wkU8SOKUY6_yaawyySyG-7" style="edgeStyle=orthogonalEdgeStyle;rounded=0;orthogonalLoop=1;jettySize=auto;html=1;entryX=1;entryY=0.629;entryDx=0;entryDy=0;entryPerimeter=0;dashed=1;endArrow=open;endFill=0;" edge="1" parent="1KI7qoRUSAaZu9YH3PpQ-2" source="wkU8SOKUY6_yaawyySyG-6" target="wkU8SOKUY6_yaawyySyG-4">
          <mxGeometry relative="1" as="geometry" />
        </mxCell>
        <mxCell id="wkU8SOKUY6_yaawyySyG-8" value="&amp;lt;&amp;lt;extend&amp;gt;&amp;gt;" style="text;html=1;align=center;verticalAlign=middle;whiteSpace=wrap;rounded=0;" vertex="1" parent="1KI7qoRUSAaZu9YH3PpQ-2">
          <mxGeometry x="970" y="348" width="60" height="30" as="geometry" />
        </mxCell>
      </root>
    </mxGraphModel>
  </diagram>
  <diagram id="RokwJWej8Ypi6z3CqhWd" name="Owner">
    <mxGraphModel grid="0" page="1" gridSize="10" guides="1" tooltips="1" connect="1" arrows="1" fold="1" pageScale="1" pageWidth="827" pageHeight="1169" math="0" shadow="0">
      <root>
        <mxCell id="0" />
        <mxCell id="1" parent="0" />
        <mxCell id="Uh4Qd1jkv6wkE4hLiZzv-24" style="edgeStyle=orthogonalEdgeStyle;rounded=0;orthogonalLoop=1;jettySize=auto;html=1;entryX=0;entryY=0.5;entryDx=0;entryDy=0;endArrow=none;endFill=0;" parent="1" source="Uh4Qd1jkv6wkE4hLiZzv-2" target="Uh4Qd1jkv6wkE4hLiZzv-4" edge="1">
          <mxGeometry relative="1" as="geometry" />
        </mxCell>
        <mxCell id="Uh4Qd1jkv6wkE4hLiZzv-3" value="ETL-service" style="swimlane;whiteSpace=wrap;html=1;" parent="1" vertex="1">
          <mxGeometry x="94" y="176" width="706" height="446" as="geometry" />
        </mxCell>
        <mxCell id="Uh4Qd1jkv6wkE4hLiZzv-13" value="Give permission to pause a job" style="ellipse;whiteSpace=wrap;html=1;" parent="Uh4Qd1jkv6wkE4hLiZzv-3" vertex="1">
          <mxGeometry x="518" y="111" width="140" height="70" as="geometry" />
        </mxCell>
        <mxCell id="Uh4Qd1jkv6wkE4hLiZzv-6" value="&lt;div&gt;run a job;&lt;br&gt;&lt;/div&gt;&lt;div&gt;pause a job;&lt;br&gt;&lt;/div&gt;&lt;div&gt;turn off a job;&lt;br&gt;&lt;/div&gt;&lt;div&gt;get logs;&lt;br&gt;&lt;/div&gt;&lt;div&gt;&amp;nbsp;restart service&lt;br&gt;&lt;/div&gt;" style="html=1;shape=mxgraph.sysml.useCaseExtPt;whiteSpace=wrap;align=center;" parent="Uh4Qd1jkv6wkE4hLiZzv-3" vertex="1">
          <mxGeometry x="204" y="38.5" width="198" height="229" as="geometry" />
        </mxCell>
        <mxCell id="Uh4Qd1jkv6wkE4hLiZzv-7" value="Give permission" style="resizable=0;html=1;verticalAlign=middle;align=center;labelBackgroundColor=none;fontStyle=1;" parent="Uh4Qd1jkv6wkE4hLiZzv-6" connectable="0" vertex="1">
          <mxGeometry x="99" y="48.6625" as="geometry" />
        </mxCell>
        <mxCell id="Uh4Qd1jkv6wkE4hLiZzv-10" value="&amp;lt;&amp;lt;include&amp;gt;&amp;gt;" style="edgeStyle=none;html=1;endArrow=open;verticalAlign=bottom;dashed=1;labelBackgroundColor=none;rounded=0;entryX=0.004;entryY=0.536;entryDx=0;entryDy=0;entryPerimeter=0;" parent="Uh4Qd1jkv6wkE4hLiZzv-3" source="Uh4Qd1jkv6wkE4hLiZzv-4" target="Uh4Qd1jkv6wkE4hLiZzv-6" edge="1">
          <mxGeometry width="160" relative="1" as="geometry">
            <mxPoint x="162" y="66" as="sourcePoint" />
            <mxPoint x="134" y="122" as="targetPoint" />
          </mxGeometry>
        </mxCell>
        <mxCell id="Uh4Qd1jkv6wkE4hLiZzv-15" value="Give permission to get logs" style="ellipse;whiteSpace=wrap;html=1;" parent="Uh4Qd1jkv6wkE4hLiZzv-3" vertex="1">
          <mxGeometry x="518" y="282" width="140" height="70" as="geometry" />
        </mxCell>
        <mxCell id="Uh4Qd1jkv6wkE4hLiZzv-14" value="Give permission to terminate a job" style="ellipse;whiteSpace=wrap;html=1;" parent="Uh4Qd1jkv6wkE4hLiZzv-3" vertex="1">
          <mxGeometry x="522" y="195" width="140" height="70" as="geometry" />
        </mxCell>
        <mxCell id="Uh4Qd1jkv6wkE4hLiZzv-5" value="Give permission to run a job" style="ellipse;whiteSpace=wrap;html=1;" parent="Uh4Qd1jkv6wkE4hLiZzv-3" vertex="1">
          <mxGeometry x="518" y="34" width="140" height="70" as="geometry" />
        </mxCell>
        <mxCell id="Uh4Qd1jkv6wkE4hLiZzv-16" value="Give permission to restart service" style="ellipse;whiteSpace=wrap;html=1;" parent="Uh4Qd1jkv6wkE4hLiZzv-3" vertex="1">
          <mxGeometry x="518" y="364" width="140" height="70" as="geometry" />
        </mxCell>
        <mxCell id="Uh4Qd1jkv6wkE4hLiZzv-17" value="&amp;lt;&amp;lt;include&amp;gt;&amp;gt;" style="edgeStyle=none;html=1;startArrow=none;endArrow=open;startSize=12;verticalAlign=bottom;dashed=1;labelBackgroundColor=none;rounded=0;entryX=0;entryY=0.5;entryDx=0;entryDy=0;exitX=0.943;exitY=0.225;exitDx=0;exitDy=0;exitPerimeter=0;endFill=0;startFill=0;" parent="Uh4Qd1jkv6wkE4hLiZzv-3" source="Uh4Qd1jkv6wkE4hLiZzv-6" target="Uh4Qd1jkv6wkE4hLiZzv-5" edge="1">
          <mxGeometry width="160" relative="1" as="geometry">
            <mxPoint x="403" y="96" as="sourcePoint" />
            <mxPoint x="563" y="96" as="targetPoint" />
          </mxGeometry>
        </mxCell>
        <mxCell id="Uh4Qd1jkv6wkE4hLiZzv-18" value="&amp;lt;&amp;lt;include&amp;gt;&amp;gt;" style="edgeStyle=none;html=1;startArrow=none;endArrow=open;startSize=12;verticalAlign=bottom;dashed=1;labelBackgroundColor=none;rounded=0;entryX=0;entryY=0.329;entryDx=0;entryDy=0;exitX=0.994;exitY=0.397;exitDx=0;exitDy=0;exitPerimeter=0;entryPerimeter=0;endFill=0;startFill=0;" parent="Uh4Qd1jkv6wkE4hLiZzv-3" source="Uh4Qd1jkv6wkE4hLiZzv-6" target="Uh4Qd1jkv6wkE4hLiZzv-13" edge="1">
          <mxGeometry width="160" relative="1" as="geometry">
            <mxPoint x="379" y="101" as="sourcePoint" />
            <mxPoint x="442" y="79" as="targetPoint" />
          </mxGeometry>
        </mxCell>
        <mxCell id="Uh4Qd1jkv6wkE4hLiZzv-19" value="&amp;lt;&amp;lt;include&amp;gt;&amp;gt;" style="edgeStyle=none;html=1;startArrow=none;endArrow=open;startSize=12;verticalAlign=bottom;dashed=1;labelBackgroundColor=none;rounded=0;entryX=0.036;entryY=0.269;entryDx=0;entryDy=0;exitX=1;exitY=0.5;exitDx=0;exitDy=0;exitPerimeter=0;entryPerimeter=0;startFill=0;endFill=0;" parent="Uh4Qd1jkv6wkE4hLiZzv-3" source="Uh4Qd1jkv6wkE4hLiZzv-6" target="Uh4Qd1jkv6wkE4hLiZzv-14" edge="1">
          <mxGeometry width="160" relative="1" as="geometry">
            <mxPoint x="389" y="140" as="sourcePoint" />
            <mxPoint x="442" y="148" as="targetPoint" />
          </mxGeometry>
        </mxCell>
        <mxCell id="Uh4Qd1jkv6wkE4hLiZzv-20" value="&amp;lt;&amp;lt;include&amp;gt;&amp;gt;" style="edgeStyle=none;html=1;startArrow=none;endArrow=open;startSize=12;verticalAlign=bottom;dashed=1;labelBackgroundColor=none;rounded=0;entryX=0.085;entryY=0.2;entryDx=0;entryDy=0;exitX=0.952;exitY=0.707;exitDx=0;exitDy=0;exitPerimeter=0;entryPerimeter=0;endFill=0;startFill=0;" parent="Uh4Qd1jkv6wkE4hLiZzv-3" source="Uh4Qd1jkv6wkE4hLiZzv-6" target="Uh4Qd1jkv6wkE4hLiZzv-15" edge="1">
          <mxGeometry width="160" relative="1" as="geometry">
            <mxPoint x="402" y="153" as="sourcePoint" />
            <mxPoint x="455" y="161" as="targetPoint" />
          </mxGeometry>
        </mxCell>
        <mxCell id="Uh4Qd1jkv6wkE4hLiZzv-21" value="&amp;lt;&amp;lt;include&amp;gt;&amp;gt;" style="edgeStyle=none;html=1;startArrow=open;endArrow=none;startSize=12;verticalAlign=bottom;dashed=1;labelBackgroundColor=none;rounded=0;entryX=0.875;entryY=0.826;entryDx=0;entryDy=0;entryPerimeter=0;" parent="Uh4Qd1jkv6wkE4hLiZzv-3" source="Uh4Qd1jkv6wkE4hLiZzv-16" target="Uh4Qd1jkv6wkE4hLiZzv-6" edge="1">
          <mxGeometry width="160" relative="1" as="geometry">
            <mxPoint x="351" y="361" as="sourcePoint" />
            <mxPoint x="404" y="369" as="targetPoint" />
          </mxGeometry>
        </mxCell>
        <mxCell id="Uh4Qd1jkv6wkE4hLiZzv-4" value="Log in" style="ellipse;whiteSpace=wrap;html=1;" parent="Uh4Qd1jkv6wkE4hLiZzv-3" vertex="1">
          <mxGeometry x="14" y="118" width="140" height="70" as="geometry" />
        </mxCell>
        <mxCell id="Uh4Qd1jkv6wkE4hLiZzv-8" value="Watch logs" style="ellipse;whiteSpace=wrap;html=1;" parent="Uh4Qd1jkv6wkE4hLiZzv-3" vertex="1">
          <mxGeometry x="269" y="323" width="140" height="70" as="geometry" />
        </mxCell>
        <mxCell id="Uh4Qd1jkv6wkE4hLiZzv-11" value="&amp;lt;&amp;lt;include&amp;gt;&amp;gt;" style="edgeStyle=none;html=1;endArrow=open;verticalAlign=bottom;dashed=1;labelBackgroundColor=none;rounded=0;entryX=0.008;entryY=0.43;entryDx=0;entryDy=0;entryPerimeter=0;exitX=1;exitY=1;exitDx=0;exitDy=0;" parent="Uh4Qd1jkv6wkE4hLiZzv-3" source="Uh4Qd1jkv6wkE4hLiZzv-4" target="Uh4Qd1jkv6wkE4hLiZzv-8" edge="1">
          <mxGeometry width="160" relative="1" as="geometry">
            <mxPoint x="120" y="244" as="sourcePoint" />
            <mxPoint x="234" y="573" as="targetPoint" />
          </mxGeometry>
        </mxCell>
        <mxCell id="Uh4Qd1jkv6wkE4hLiZzv-9" value="Watch summary report" style="ellipse;whiteSpace=wrap;html=1;" parent="Uh4Qd1jkv6wkE4hLiZzv-3" vertex="1">
          <mxGeometry x="105" y="329" width="140" height="70" as="geometry" />
        </mxCell>
        <mxCell id="Uh4Qd1jkv6wkE4hLiZzv-12" value="&amp;lt;&amp;lt;include&amp;gt;&amp;gt;" style="edgeStyle=none;html=1;endArrow=open;verticalAlign=bottom;dashed=1;labelBackgroundColor=none;rounded=0;entryX=0;entryY=0.5;entryDx=0;entryDy=0;exitX=0.414;exitY=1;exitDx=0;exitDy=0;exitPerimeter=0;" parent="Uh4Qd1jkv6wkE4hLiZzv-3" source="Uh4Qd1jkv6wkE4hLiZzv-4" target="Uh4Qd1jkv6wkE4hLiZzv-9" edge="1">
          <mxGeometry width="160" relative="1" as="geometry">
            <mxPoint x="43" y="252" as="sourcePoint" />
            <mxPoint x="217" y="800" as="targetPoint" />
          </mxGeometry>
        </mxCell>
        <mxCell id="Uh4Qd1jkv6wkE4hLiZzv-2" value="Owner" style="shape=umlActor;html=1;verticalLabelPosition=bottom;verticalAlign=top;align=center;" parent="1" vertex="1">
          <mxGeometry x="28" y="299" width="30" height="60" as="geometry" />
        </mxCell>
      </root>
    </mxGraphModel>
  </diagram>
</mxfile>
